<svg xmlns="http://www.w3.org/2000/svg" width="172" height="21"><path fill-rule="evenodd" d="M10.364 0L20.73 10.365 10.364 20.73l-3.109-3.11 4.753-4.753H2.502L0 10.366l2.502-2.504h9.506L7.255 3.11 10.365 0zm26.614 2.929c2.519 0 4.566 2 4.566 4.492v.815c0 2.494-2.047 4.489-4.566 4.489h-5.174v5.991c0 .247-.19.435-.414.435h-2.586a.424.424 0 01-.414-.435V3.369c0-.253.19-.44.414-.44h8.174zm19.483.002c.223 0 .413.185.413.438V5.86c0 .25-.19.438-.413.438h-8.75v3.057h7.598c.224 0 .414.186.414.437v2.494a.423.423 0 01-.42.437h-7.592l-.005 3.058h8.75c.223 0 .416.188.416.436v2.497c0 .25-.193.436-.416.436H44.71a.425.425 0 01-.42-.436l.002-15.346c0-.253.195-.438.418-.438h11.75zm7.026 0c.222 0 .413.185.413.438v12.413h8.745c.228 0 .415.188.415.436v2.497a.42.42 0 01-.415.436H60.897c-.227 0-.412-.186-.412-.436l.001-15.346c0-.253.184-.438.413-.438h2.588zm62.764 0c.157 0 .287.062.348.185l6.737 10.234V3.369c0-.253.188-.438.45-.438h2.55a.43.43 0 01.447.438v15.346c0 .25-.192.436-.447.436h-2.743c-.16 0-.29-.061-.354-.186l-6.77-10.231v9.98c0 .25-.187.437-.414.437h-2.582a.426.426 0 01-.417-.436V3.369c0-.253.194-.438.417-.438h2.778zm25.163 0c.22 0 .416.185.416.438V5.86c0 .25-.196.438-.416.438h-3.58v9.483h3.58c.22 0 .416.188.416.436v2.497c0 .25-.196.436-.416.436H140.81a.428.428 0 01-.418-.436v-2.497a.43.43 0 01.418-.436h3.578V6.3h-3.578a.43.43 0 01-.418-.438V3.37c0-.253.198-.438.418-.438h10.604zm11.548 0c.189 0 .345.125.413.31l5.721 15.348a.44.44 0 01-.424.562h-2.743a.434.434 0 01-.415-.313l-1.088-3.056h-5.745l-1.084 3.056a.44.44 0 01-.417.313h-2.744a.426.426 0 01-.384-.562l5.681-15.348a.441.441 0 01.417-.31h2.812zm-80.514 0c3.159 0 5.713 2.497 5.713 5.583v5.056c0 3.082-2.554 5.581-5.713 5.581H80.15c-3.162 0-5.716-2.5-5.716-5.581V8.514c0-3.086 2.554-5.584 5.716-5.584h2.298zm20.919 0a.43.43 0 01.448.438v2.493a.43.43 0 01-.448.437h-4.693v12.416a.43.43 0 01-.447.436h-2.554a.428.428 0 01-.443-.436V6.3h-4.727a.423.423 0 01-.414-.437V3.369c0-.252.19-.439.414-.439h12.864zm10.422 0c3.16 0 5.714 2.497 5.714 5.583v5.056c0 3.082-2.555 5.581-5.714 5.581h-2.299c-3.163 0-5.715-2.5-5.715-5.581V8.514c0-3.086 2.55-5.584 5.715-5.584h2.299zM82.448 6.298H80.15c-1.249 0-2.299 1.002-2.299 2.215v5.056c0 1.212 1.05 2.212 2.299 2.212h2.298c1.243 0 2.265-1 2.265-2.212V8.514c0-1.213-1.022-2.215-2.265-2.215zm31.34 0h-2.298c-1.247 0-2.301 1.002-2.301 2.215v5.056c0 1.212 1.054 2.212 2.301 2.212h2.299c1.24 0 2.27-1 2.27-2.212V8.514c0-1.213-1.03-2.215-2.27-2.215zm47.763 1.308l-1.786 5.118h3.61l-1.824-5.118zM36.978 6.3h-5.174v3.057h5.174c.605 0 1.147-.5 1.147-1.12V7.42c0-.623-.542-1.121-1.147-1.121zm132.637-3.37c1.137 0 2.022.912 2.022 2.015v.012a2.031 2.031 0 01-2.033 2.028 2.013 2.013 0 01-2.022-2.017v-.011c0-1.104.896-2.028 2.033-2.028zm0 .2c-1.035 0-1.82.824-1.82 1.827v.01c0 1.004.78 1.817 1.81 1.817 1.036 0 1.82-.824 1.82-1.827v-.012a1.792 1.792 0 00-1.81-1.815zm.124.706c.28 0 .499.085.644.23a.586.586 0 01.174.443v.01c0 .343-.202.555-.494.639l.571.802h-.48l-.516-.734h-.443v.734h-.403V3.836zm-.018.364h-.526v.673h.526c.264 0 .42-.129.42-.331v-.01c0-.214-.156-.332-.42-.332z"/></svg>